<svg xmlns="http://www.w3.org/2000/svg" xmlns:xlink="http://www.w3.org/1999/xlink" viewBox="0 0 543.27 366.45"><defs><style>.cls-1{fill:url(#linear-gradient);}.cls-2{fill:url(#linear-gradient-2);}.cls-3{fill:url(#linear-gradient-3);}.cls-4{opacity:0.5;}.cls-5{fill:#fff;}.cls-6{fill:#f14139;}.cls-10,.cls-7{fill:#172d35;}.cls-8{fill:#60696d;}.cls-9{fill:#4f585b;}.cls-10{opacity:0.1;}.cls-11{fill:#d62525;}</style><linearGradient id="linear-gradient" x1="55.38" y1="149.1" x2="543.27" y2="149.1" gradientUnits="userSpaceOnUse"><stop offset="0" stop-color="#5b38d2"/><stop offset="1" stop-color="#cf4da7"/></linearGradient><linearGradient id="linear-gradient-2" x1="101.21" y1="62.22" x2="146.08" y2="62.22" xlink:href="#linear-gradient"/><linearGradient id="linear-gradient-3" x1="0" y1="237.89" x2="44.87" y2="237.89" xlink:href="#linear-gradient"/></defs><title>Asset 60</title><g id="Layer_2" data-name="Layer 2"><g id="Layer_1-2" data-name="Layer 1"><path class="cls-1" d="M543.27,236.46a22,22,0,0,1-22,22h-444a22,22,0,0,1,0-43.92H170.9a22,22,0,0,0,0-43.92H71a22,22,0,0,1,6.38-43H276.88a22,22,0,1,0,0-43.92H175.68a22,22,0,0,1,0-43.92H423a22,22,0,0,1,0,43.92H367.59a22,22,0,1,0,0,43.92H521.31a22,22,0,0,1,0,43.92h-6a21.72,21.72,0,0,0-6.38-1H261.61a22,22,0,0,0-22,22,22,22,0,0,0,22,22h259.7A22,22,0,0,1,543.27,236.46Z"/><circle class="cls-2" cx="123.64" cy="62.22" r="22.44"/><circle class="cls-3" cx="22.44" cy="237.89" r="22.44"/><g class="cls-4"><circle class="cls-5" cx="201.13" cy="149.55" r="1.7"/><circle class="cls-5" cx="224.58" cy="141.73" r="1.7"/><path class="cls-5" d="M183.46,157.86a2.2,2.2,0,1,1,2.2-2.2A2.2,2.2,0,0,1,183.46,157.86Zm0-3.4a1.2,1.2,0,1,0,1.2,1.2A1.2,1.2,0,0,0,183.46,154.47Z"/><path class="cls-5" d="M180.91,143.94l3,2.75c.71.65,1.78-.41,1.06-1.06l-3-2.75c-.71-.65-1.78.41-1.06,1.06Z"/><path class="cls-5" d="M183.79,142.75l-2.75,3c-.65.71.41,1.78,1.06,1.06l2.75-3c.65-.71-.41-1.78-1.06-1.06Z"/><path class="cls-5" d="M224.59,148.88l-2.78,3c-.66.71.4,1.77,1.06,1.06l2.78-3c.66-.71-.4-1.77-1.06-1.06Z"/><path class="cls-5" d="M225.76,151.76l-3-2.78c-.71-.66-1.77.4-1.06,1.06l3,2.78c.71.66,1.77-.4,1.06-1.06Z"/><circle class="cls-5" cx="315.7" cy="149.55" r="1.7"/><circle class="cls-5" cx="339.15" cy="141.73" r="1.7"/><path class="cls-5" d="M298,157.86a2.2,2.2,0,1,1,2.2-2.2A2.2,2.2,0,0,1,298,157.86Zm0-3.4a1.2,1.2,0,1,0,1.2,1.2A1.2,1.2,0,0,0,298,154.47Z"/><path class="cls-5" d="M295.48,143.94l3,2.75c.71.65,1.78-.41,1.06-1.06l-3-2.75c-.71-.65-1.78.41-1.06,1.06Z"/><path class="cls-5" d="M298.36,142.75l-2.75,3c-.65.71.41,1.78,1.06,1.06l2.75-3c.65-.71-.41-1.78-1.06-1.06Z"/><path class="cls-5" d="M339.16,148.88l-2.78,3c-.66.71.4,1.77,1.06,1.06l2.78-3c.66-.71-.4-1.77-1.06-1.06Z"/><path class="cls-5" d="M340.33,151.76l-3-2.78c-.71-.66-1.77.4-1.06,1.06l3,2.78c.71.66,1.77-.4,1.06-1.06Z"/><circle class="cls-5" cx="494.24" cy="149.55" r="1.7"/><circle class="cls-5" cx="517.7" cy="141.73" r="1.7"/><path class="cls-5" d="M476.57,157.86a2.2,2.2,0,1,1,2.2-2.2A2.2,2.2,0,0,1,476.57,157.86Zm0-3.4a1.2,1.2,0,1,0,1.2,1.2A1.2,1.2,0,0,0,476.57,154.47Z"/><path class="cls-5" d="M474,143.94l3,2.75c.71.65,1.78-.41,1.06-1.06l-3-2.75c-.71-.65-1.78.41-1.06,1.06Z"/><path class="cls-5" d="M476.91,142.75l-2.75,3c-.65.71.41,1.78,1.06,1.06l2.75-3c.65-.71-.41-1.78-1.06-1.06Z"/><path class="cls-5" d="M517.71,148.88l-2.78,3c-.66.71.4,1.77,1.06,1.06l2.78-3c.66-.71-.4-1.77-1.06-1.06Z"/><path class="cls-5" d="M518.87,151.76l-3-2.78c-.71-.66-1.77.4-1.06,1.06l3,2.78c.71.66,1.77-.4,1.06-1.06Z"/><circle class="cls-5" cx="98.01" cy="149.55" r="1.7"/><circle class="cls-5" cx="121.47" cy="141.73" r="1.7"/><path class="cls-5" d="M80.34,157.86a2.2,2.2,0,1,1,2.2-2.2A2.2,2.2,0,0,1,80.34,157.86Zm0-3.4a1.2,1.2,0,1,0,1.2,1.2A1.2,1.2,0,0,0,80.34,154.47Z"/><path class="cls-5" d="M77.79,143.94l3,2.75c.71.65,1.78-.41,1.06-1.06l-3-2.75c-.71-.65-1.78.41-1.06,1.06Z"/><path class="cls-5" d="M80.67,142.75l-2.75,3c-.65.71.41,1.78,1.06,1.06l2.75-3c.65-.71-.41-1.78-1.06-1.06Z"/><path class="cls-5" d="M121.47,148.88l-2.78,3c-.66.71.4,1.77,1.06,1.06l2.78-3c.66-.71-.4-1.77-1.06-1.06Z"/><path class="cls-5" d="M122.64,151.76l-3-2.78c-.71-.66-1.77.4-1.06,1.06l3,2.78c.71.66,1.77-.4,1.06-1.06Z"/></g><g class="cls-4"><circle class="cls-5" cx="193.49" cy="62.66" r="1.7"/><circle class="cls-5" cx="216.94" cy="54.84" r="1.7"/><path class="cls-5" d="M175.82,71a2.2,2.2,0,1,1,2.2-2.2A2.2,2.2,0,0,1,175.82,71Zm0-3.4a1.2,1.2,0,1,0,1.2,1.2A1.2,1.2,0,0,0,175.82,67.58Z"/><path class="cls-5" d="M173.27,57.06l3,2.75c.71.65,1.78-.41,1.06-1.06l-3-2.75c-.71-.65-1.78.41-1.06,1.06Z"/><path class="cls-5" d="M176.15,55.87l-2.75,3c-.65.71.41,1.78,1.06,1.06l2.75-3c.65-.71-.41-1.78-1.06-1.06Z"/><path class="cls-5" d="M217,62l-2.78,3c-.66.71.4,1.77,1.06,1.06l2.78-3c.66-.71-.4-1.77-1.06-1.06Z"/><path class="cls-5" d="M218.12,64.88l-3-2.78c-.71-.66-1.77.4-1.06,1.06l3,2.78c.71.66,1.77-.4,1.06-1.06Z"/><circle class="cls-5" cx="288.01" cy="62.66" r="1.7"/><circle class="cls-5" cx="311.47" cy="54.84" r="1.7"/><path class="cls-5" d="M270.34,71a2.2,2.2,0,1,1,2.2-2.2A2.2,2.2,0,0,1,270.34,71Zm0-3.4a1.2,1.2,0,1,0,1.2,1.2A1.2,1.2,0,0,0,270.34,67.58Z"/><path class="cls-5" d="M267.79,57.06l3,2.75c.71.65,1.78-.41,1.06-1.06l-3-2.75c-.71-.65-1.78.41-1.06,1.06Z"/><path class="cls-5" d="M270.67,55.87l-2.75,3c-.65.71.41,1.78,1.06,1.06l2.75-3c.65-.71-.41-1.78-1.06-1.06Z"/><path class="cls-5" d="M311.47,62l-2.78,3c-.66.71.4,1.77,1.06,1.06l2.78-3c.66-.71-.4-1.77-1.06-1.06Z"/><path class="cls-5" d="M312.64,64.88l-3-2.78c-.71-.66-1.77.4-1.06,1.06l3,2.78c.71.66,1.77-.4,1.06-1.06Z"/><circle class="cls-5" cx="400.68" cy="62.66" r="1.7"/><circle class="cls-5" cx="424.13" cy="54.84" r="1.7"/><path class="cls-5" d="M383,71a2.2,2.2,0,1,1,2.2-2.2A2.2,2.2,0,0,1,383,71Zm0-3.4a1.2,1.2,0,1,0,1.2,1.2A1.2,1.2,0,0,0,383,67.58Z"/><path class="cls-5" d="M380.46,57.06l3,2.75c.71.65,1.78-.41,1.06-1.06l-3-2.75c-.71-.65-1.78.41-1.06,1.06Z"/><path class="cls-5" d="M383.34,55.87l-2.75,3c-.65.71.41,1.78,1.06,1.06l2.75-3c.65-.71-.41-1.78-1.06-1.06Z"/><path class="cls-5" d="M424.14,62l-2.78,3c-.66.71.4,1.77,1.06,1.06l2.78-3c.66-.71-.4-1.77-1.06-1.06Z"/><path class="cls-5" d="M425.3,64.88l-3-2.78c-.71-.66-1.77.4-1.06,1.06l3,2.78c.71.66,1.77-.4,1.06-1.06Z"/></g><g class="cls-4"><circle class="cls-5" cx="139.07" cy="238.34" r="1.7"/><circle class="cls-5" cx="162.52" cy="230.52" r="1.7"/><path class="cls-5" d="M121.4,246.66a2.2,2.2,0,1,1,2.2-2.2A2.2,2.2,0,0,1,121.4,246.66Zm0-3.4a1.2,1.2,0,1,0,1.2,1.2A1.2,1.2,0,0,0,121.4,243.26Z"/><path class="cls-5" d="M118.85,232.74l3,2.75c.71.65,1.78-.41,1.06-1.06l-3-2.75c-.71-.65-1.78.41-1.06,1.06Z"/><path class="cls-5" d="M121.73,231.55l-2.75,3c-.65.71.41,1.78,1.06,1.06l2.75-3c.65-.71-.41-1.78-1.06-1.06Z"/><path class="cls-5" d="M162.53,237.68l-2.78,3c-.66.71.4,1.77,1.06,1.06l2.78-3c.66-.71-.4-1.77-1.06-1.06Z"/><path class="cls-5" d="M163.7,240.56l-3-2.78c-.71-.66-1.77.4-1.06,1.06l3,2.78c.71.66,1.77-.4,1.06-1.06Z"/><circle class="cls-5" cx="288.01" cy="238.34" r="1.7"/><circle class="cls-5" cx="311.47" cy="230.52" r="1.7"/><path class="cls-5" d="M270.34,246.66a2.2,2.2,0,1,1,2.2-2.2A2.2,2.2,0,0,1,270.34,246.66Zm0-3.4a1.2,1.2,0,1,0,1.2,1.2A1.2,1.2,0,0,0,270.34,243.26Z"/><path class="cls-5" d="M267.79,232.74l3,2.75c.71.65,1.78-.41,1.06-1.06l-3-2.75c-.71-.65-1.78.41-1.06,1.06Z"/><path class="cls-5" d="M270.67,231.55l-2.75,3c-.65.71.41,1.78,1.06,1.06l2.75-3c.65-.71-.41-1.78-1.06-1.06Z"/><path class="cls-5" d="M311.47,237.68l-2.78,3c-.66.71.4,1.77,1.06,1.06l2.78-3c.66-.71-.4-1.77-1.06-1.06Z"/><path class="cls-5" d="M312.64,240.56l-3-2.78c-.71-.66-1.77.4-1.06,1.06l3,2.78c.71.66,1.77-.4,1.06-1.06Z"/><circle class="cls-5" cx="467.51" cy="238.34" r="1.7"/><circle class="cls-5" cx="490.96" cy="230.52" r="1.7"/><path class="cls-5" d="M449.84,246.66a2.2,2.2,0,1,1,2.2-2.2A2.2,2.2,0,0,1,449.84,246.66Zm0-3.4a1.2,1.2,0,1,0,1.2,1.2A1.2,1.2,0,0,0,449.84,243.26Z"/><path class="cls-5" d="M447.29,232.74l3,2.75c.71.65,1.78-.41,1.06-1.06l-3-2.75c-.71-.65-1.78.41-1.06,1.06Z"/><path class="cls-5" d="M450.17,231.55l-2.75,3c-.65.71.41,1.78,1.06,1.06l2.75-3c.65-.71-.41-1.78-1.06-1.06Z"/><path class="cls-5" d="M491,237.68l-2.78,3c-.66.71.4,1.77,1.06,1.06l2.78-3c.66-.71-.4-1.77-1.06-1.06Z"/><path class="cls-5" d="M492.14,240.56l-3-2.78c-.71-.66-1.77.4-1.06,1.06l3,2.78c.71.66,1.77-.4,1.06-1.06Z"/></g><rect class="cls-6" x="390.18" y="212.65" width="45.6" height="35.65" rx="12" ry="12"/><path class="cls-7" d="M423.77,250h-21.6a14.52,14.52,0,0,1-14.5-14.5V223.82a14.52,14.52,0,0,1,14.5-14.5h21.6a14.52,14.52,0,0,1,14.5,14.5v11.65A14.52,14.52,0,0,1,423.77,250Zm-21.6-35.65a9.51,9.51,0,0,0-9.5,9.5v11.65a9.51,9.51,0,0,0,9.5,9.5h21.6a9.51,9.51,0,0,0,9.5-9.5V223.82a9.51,9.51,0,0,0-9.5-9.5Z"/><rect class="cls-8" x="312.2" y="48.51" width="32.38" height="261.97" rx="16.19" ry="16.19"/><path class="cls-9" d="M344.21,68.67a9.73,9.73,0,0,0-5.1-1.51c-8.91,0-16.19,13.24-16.19,29.43V299.7a51.27,51.27,0,0,0,.83,9.27c-6.43-3.91-11.09-15-11.09-27.92V77.94c0-16.19,7.28-29.43,16.19-29.43,4.45,0,8.5,3.31,11.43,8.65A38.3,38.3,0,0,1,344.21,68.67Z"/><path class="cls-7" d="M339.05,312.56H317.62a8,8,0,0,1-8-8V64.28a18.69,18.69,0,1,1,37.38,0V304.59A8,8,0,0,1,339.05,312.56Zm-10.72-262a13.7,13.7,0,0,0-13.69,13.69V304.59a3,3,0,0,0,3,3h21.43a3,3,0,0,0,3-3V64.28A13.7,13.7,0,0,0,328.34,50.6Z"/><rect class="cls-8" x="148.63" y="237.52" width="358.96" height="126.84" rx="12" ry="12"/><path class="cls-9" d="M507.59,247.47v.41H168.94a10,10,0,0,0-9.95,9.95V364.36h-.41a10,10,0,0,1-9.95-9.95V247.47a10,10,0,0,1,9.95-9.95H497.64A10,10,0,0,1,507.59,247.47Z"/><rect class="cls-7" x="237.64" y="361.45" width="175.34" height="5"/><path class="cls-7" d="M498.05,366.45H429.14v-5h68.91A7.46,7.46,0,0,0,505.5,354V247.06a7.46,7.46,0,0,0-7.45-7.45H159a7.46,7.46,0,0,0-7.45,7.45V354a7.46,7.46,0,0,0,7.45,7.45h50.88v5H159A12.46,12.46,0,0,1,146.54,354V247.06A12.46,12.46,0,0,1,159,234.61H498.05a12.46,12.46,0,0,1,12.45,12.45V354A12.46,12.46,0,0,1,498.05,366.45Z"/><rect class="cls-7" x="223.13" y="261.31" width="284.87" height="5"/><rect class="cls-7" x="149.04" y="261.31" width="57.93" height="5"/><rect class="cls-10" x="148.94" y="265.28" width="358.96" height="5"/><rect class="cls-8" x="281.58" y="201.05" width="91.19" height="37.31" rx="12" ry="12"/><path class="cls-9" d="M374.43,211v.41H303.55a10,10,0,0,0-9.95,9.95v17h-.41a10,10,0,0,1-9.95-9.95V211a10,10,0,0,1,9.95-9.95h71.29A10,10,0,0,1,374.43,211Z"/><path class="cls-7" d="M361.6,240H294.41a14.52,14.52,0,0,1-14.5-14.5V212.22a14.52,14.52,0,0,1,14.5-14.5H361.6a14.52,14.52,0,0,1,14.5,14.5v13.31A14.52,14.52,0,0,1,361.6,240Zm-67.19-37.31a9.51,9.51,0,0,0-9.5,9.5v13.31a9.51,9.51,0,0,0,9.5,9.5H361.6a9.51,9.51,0,0,0,9.5-9.5V212.22a9.51,9.51,0,0,0-9.5-9.5Z"/><rect class="cls-8" x="282.41" y="183.21" width="91.19" height="17.84" rx="8.92" ry="8.92"/><path class="cls-9" d="M375.26,188v.2H304.37c-5.47,0-9.95,2.14-9.95,4.76V201H294c-5.47,0-9.95-2.14-9.95-4.76V188c0-2.62,4.48-4.76,9.95-4.76h71.29C370.78,183.21,375.26,185.35,375.26,188Z"/><path class="cls-7" d="M365.51,203.15H292.16a11.42,11.42,0,1,1,0-22.84h73.35a11.42,11.42,0,1,1,0,22.84Zm-73.35-17.84a6.42,6.42,0,1,0,0,12.84h73.35a6.42,6.42,0,1,0,0-12.84Z"/><rect class="cls-6" x="279.92" y="2.91" width="93.68" height="93.68" rx="46.84" ry="46.84"/><path class="cls-11" d="M371.94,48.1A47,47,0,0,1,325.1,94.93a46.36,46.36,0,0,1-15.34-2.59,46.87,46.87,0,0,0,0-88.49A46.63,46.63,0,0,1,358.18,15,46.69,46.69,0,0,1,371.94,48.1Z"/><path class="cls-7" d="M328,98.68a49.34,49.34,0,1,1,49.34-49.34A49.39,49.39,0,0,1,328,98.68ZM328,5a44.34,44.34,0,1,0,44.34,44.34A44.39,44.39,0,0,0,328,5Z"/><path class="cls-5" d="M493.13,282.29v33.16a1.5,1.5,0,0,0,3,0V282.29a1.5,1.5,0,0,0-3,0Z"/><path class="cls-5" d="M493.13,322.08V337a1.5,1.5,0,0,0,3,0V322.08a1.5,1.5,0,0,0-3,0Z"/><path class="cls-5" d="M294,60.5a38.22,38.22,0,0,1,14.26-40.26c1.54-1.13,0-3.73-1.51-2.59A41.33,41.33,0,0,0,291.08,61.3a1.5,1.5,0,0,0,2.89-.8Z"/></g></g></svg>