<svg xmlns="http://www.w3.org/2000/svg" xmlns:xlink="http://www.w3.org/1999/xlink" viewBox="0 0 543.27 310.77"><defs><style>.cls-1{fill:url(#linear-gradient);}.cls-2{fill:url(#linear-gradient-2);}.cls-3{fill:url(#linear-gradient-3);}.cls-4{opacity:0.5;}.cls-5{fill:#fff;}.cls-6{opacity:0.25;}.cls-7{fill:#60696d;}.cls-8{fill:#fffefa;}.cls-9{fill:#f2f0e9;}.cls-10{fill:#535b5e;}.cls-11,.cls-17{fill:#172d35;}.cls-12{fill:#db2e2f;}.cls-13{fill:#515b5e;}.cls-14{fill:#4b5964;}.cls-15{fill:#3e4a54;}.cls-16{fill:#6a757f;}.cls-17{opacity:0.15;}</style><linearGradient id="linear-gradient" x1="55.38" y1="109.32" x2="543.27" y2="109.32" gradientUnits="userSpaceOnUse"><stop offset="0" stop-color="#5b38d2"/><stop offset="1" stop-color="#cf4da7"/></linearGradient><linearGradient id="linear-gradient-2" x1="101.21" y1="22.44" x2="146.08" y2="22.44" xlink:href="#linear-gradient"/><linearGradient id="linear-gradient-3" x1="0" y1="198.12" x2="44.87" y2="198.12" xlink:href="#linear-gradient"/></defs><title>Asset 10</title><g id="Layer_2" data-name="Layer 2"><g id="Layer_1-2" data-name="Layer 1"><path class="cls-1" d="M543.27,196.68a22,22,0,0,1-22,22h-444a22,22,0,0,1,0-43.92H170.9a22,22,0,0,0,0-43.92H71a22,22,0,0,1,6.38-43H276.88a22,22,0,1,0,0-43.92H175.68a22,22,0,0,1,0-43.92H423a22,22,0,0,1,0,43.92H367.59a22,22,0,1,0,0,43.92H521.31a22,22,0,0,1,0,43.92h-6a21.72,21.72,0,0,0-6.38-1H261.61a22,22,0,0,0-22,22,22,22,0,0,0,22,22h259.7A22,22,0,0,1,543.27,196.68Z"/><circle class="cls-2" cx="123.64" cy="22.44" r="22.44"/><circle class="cls-3" cx="22.44" cy="198.12" r="22.44"/><g class="cls-4"><circle class="cls-5" cx="201.13" cy="109.77" r="1.7"/><circle class="cls-5" cx="224.58" cy="101.95" r="1.7"/><path class="cls-5" d="M183.46,118.09a2.2,2.2,0,1,1,2.2-2.2A2.2,2.2,0,0,1,183.46,118.09Zm0-3.4a1.2,1.2,0,1,0,1.2,1.2A1.2,1.2,0,0,0,183.46,114.69Z"/><path class="cls-5" d="M180.91,104.17l3,2.75c.71.65,1.78-.41,1.06-1.06l-3-2.75c-.71-.65-1.78.41-1.06,1.06Z"/><path class="cls-5" d="M183.79,103,181,106c-.65.71.41,1.78,1.06,1.06l2.75-3c.65-.71-.41-1.78-1.06-1.06Z"/><path class="cls-5" d="M224.59,109.1l-2.78,3c-.66.71.4,1.77,1.06,1.06l2.78-3c.66-.71-.4-1.77-1.06-1.06Z"/><path class="cls-5" d="M225.76,112l-3-2.78c-.71-.66-1.77.4-1.06,1.06l3,2.78c.71.66,1.77-.4,1.06-1.06Z"/><circle class="cls-5" cx="315.7" cy="109.77" r="1.7"/><circle class="cls-5" cx="339.15" cy="101.95" r="1.7"/><path class="cls-5" d="M298,118.09a2.2,2.2,0,1,1,2.2-2.2A2.2,2.2,0,0,1,298,118.09Zm0-3.4a1.2,1.2,0,1,0,1.2,1.2A1.2,1.2,0,0,0,298,114.69Z"/><path class="cls-5" d="M295.48,104.17l3,2.75c.71.65,1.78-.41,1.06-1.06l-3-2.75c-.71-.65-1.78.41-1.06,1.06Z"/><path class="cls-5" d="M298.36,103l-2.75,3c-.65.71.41,1.78,1.06,1.06l2.75-3c.65-.71-.41-1.78-1.06-1.06Z"/><path class="cls-5" d="M339.16,109.1l-2.78,3c-.66.71.4,1.77,1.06,1.06l2.78-3c.66-.71-.4-1.77-1.06-1.06Z"/><path class="cls-5" d="M340.33,112l-3-2.78c-.71-.66-1.77.4-1.06,1.06l3,2.78c.71.66,1.77-.4,1.06-1.06Z"/><circle class="cls-5" cx="494.24" cy="109.77" r="1.7"/><circle class="cls-5" cx="517.7" cy="101.95" r="1.7"/><path class="cls-5" d="M476.57,118.09a2.2,2.2,0,1,1,2.2-2.2A2.2,2.2,0,0,1,476.57,118.09Zm0-3.4a1.2,1.2,0,1,0,1.2,1.2A1.2,1.2,0,0,0,476.57,114.69Z"/><path class="cls-5" d="M474,104.17l3,2.75c.71.65,1.78-.41,1.06-1.06l-3-2.75c-.71-.65-1.78.41-1.06,1.06Z"/><path class="cls-5" d="M476.91,103l-2.75,3c-.65.71.41,1.78,1.06,1.06l2.75-3c.65-.71-.41-1.78-1.06-1.06Z"/><path class="cls-5" d="M517.71,109.1l-2.78,3c-.66.71.4,1.77,1.06,1.06l2.78-3c.66-.71-.4-1.77-1.06-1.06Z"/><path class="cls-5" d="M518.87,112l-3-2.78c-.71-.66-1.77.4-1.06,1.06l3,2.78c.71.66,1.77-.4,1.06-1.06Z"/><circle class="cls-5" cx="98.01" cy="109.77" r="1.7"/><circle class="cls-5" cx="121.47" cy="101.95" r="1.7"/><path class="cls-5" d="M80.34,118.09a2.2,2.2,0,1,1,2.2-2.2A2.2,2.2,0,0,1,80.34,118.09Zm0-3.4a1.2,1.2,0,1,0,1.2,1.2A1.2,1.2,0,0,0,80.34,114.69Z"/><path class="cls-5" d="M77.79,104.17l3,2.75c.71.65,1.78-.41,1.06-1.06l-3-2.75c-.71-.65-1.78.41-1.06,1.06Z"/><path class="cls-5" d="M80.67,103l-2.75,3c-.65.71.41,1.78,1.06,1.06l2.75-3c.65-.71-.41-1.78-1.06-1.06Z"/><path class="cls-5" d="M121.47,109.1l-2.78,3c-.66.71.4,1.77,1.06,1.06l2.78-3c.66-.71-.4-1.77-1.06-1.06Z"/><path class="cls-5" d="M122.64,112l-3-2.78c-.71-.66-1.77.4-1.06,1.06l3,2.78c.71.66,1.77-.4,1.06-1.06Z"/></g><g class="cls-4"><circle class="cls-5" cx="193.49" cy="22.88" r="1.7"/><circle class="cls-5" cx="216.94" cy="15.07" r="1.7"/><path class="cls-5" d="M175.82,31.2A2.2,2.2,0,1,1,178,29,2.2,2.2,0,0,1,175.82,31.2Zm0-3.4A1.2,1.2,0,1,0,177,29,1.2,1.2,0,0,0,175.82,27.8Z"/><path class="cls-5" d="M173.27,17.28l3,2.75c.71.65,1.78-.41,1.06-1.06l-3-2.75c-.71-.65-1.78.41-1.06,1.06Z"/><path class="cls-5" d="M176.15,16.09l-2.75,3c-.65.71.41,1.78,1.06,1.06l2.75-3c.65-.71-.41-1.78-1.06-1.06Z"/><path class="cls-5" d="M217,22.22l-2.78,3c-.66.71.4,1.77,1.06,1.06l2.78-3c.66-.71-.4-1.77-1.06-1.06Z"/><path class="cls-5" d="M218.12,25.1l-3-2.78c-.71-.66-1.77.4-1.06,1.06l3,2.78c.71.66,1.77-.4,1.06-1.06Z"/><circle class="cls-5" cx="288.01" cy="22.88" r="1.7"/><circle class="cls-5" cx="311.47" cy="15.07" r="1.7"/><path class="cls-5" d="M270.34,31.2a2.2,2.2,0,1,1,2.2-2.2A2.2,2.2,0,0,1,270.34,31.2Zm0-3.4a1.2,1.2,0,1,0,1.2,1.2A1.2,1.2,0,0,0,270.34,27.8Z"/><path class="cls-5" d="M267.79,17.28l3,2.75c.71.65,1.78-.41,1.06-1.06l-3-2.75c-.71-.65-1.78.41-1.06,1.06Z"/><path class="cls-5" d="M270.67,16.09l-2.75,3c-.65.71.41,1.78,1.06,1.06l2.75-3c.65-.71-.41-1.78-1.06-1.06Z"/><path class="cls-5" d="M311.47,22.22l-2.78,3c-.66.71.4,1.77,1.06,1.06l2.78-3c.66-.71-.4-1.77-1.06-1.06Z"/><path class="cls-5" d="M312.64,25.1l-3-2.78c-.71-.66-1.77.4-1.06,1.06l3,2.78c.71.66,1.77-.4,1.06-1.06Z"/><circle class="cls-5" cx="400.68" cy="22.88" r="1.7"/><circle class="cls-5" cx="424.13" cy="15.07" r="1.7"/><path class="cls-5" d="M383,31.2a2.2,2.2,0,1,1,2.2-2.2A2.2,2.2,0,0,1,383,31.2Zm0-3.4a1.2,1.2,0,1,0,1.2,1.2A1.2,1.2,0,0,0,383,27.8Z"/><path class="cls-5" d="M380.46,17.28l3,2.75c.71.65,1.78-.41,1.06-1.06l-3-2.75c-.71-.65-1.78.41-1.06,1.06Z"/><path class="cls-5" d="M383.34,16.09l-2.75,3c-.65.71.41,1.78,1.06,1.06l2.75-3c.65-.71-.41-1.78-1.06-1.06Z"/><path class="cls-5" d="M424.14,22.22l-2.78,3c-.66.71.4,1.77,1.06,1.06l2.78-3c.66-.71-.4-1.77-1.06-1.06Z"/><path class="cls-5" d="M425.3,25.1l-3-2.78c-.71-.66-1.77.4-1.06,1.06l3,2.78c.71.66,1.77-.4,1.06-1.06Z"/></g><g class="cls-4"><circle class="cls-5" cx="139.07" cy="198.56" r="1.7"/><circle class="cls-5" cx="162.52" cy="190.74" r="1.7"/><path class="cls-5" d="M121.4,206.88a2.2,2.2,0,1,1,2.2-2.2A2.2,2.2,0,0,1,121.4,206.88Zm0-3.4a1.2,1.2,0,1,0,1.2,1.2A1.2,1.2,0,0,0,121.4,203.48Z"/><path class="cls-5" d="M118.85,193l3,2.75c.71.65,1.78-.41,1.06-1.06l-3-2.75c-.71-.65-1.78.41-1.06,1.06Z"/><path class="cls-5" d="M121.73,191.77l-2.75,3c-.65.71.41,1.78,1.06,1.06l2.75-3c.65-.71-.41-1.78-1.06-1.06Z"/><path class="cls-5" d="M162.53,197.9l-2.78,3c-.66.71.4,1.77,1.06,1.06l2.78-3c.66-.71-.4-1.77-1.06-1.06Z"/><path class="cls-5" d="M163.7,200.78l-3-2.78c-.71-.66-1.77.4-1.06,1.06l3,2.78c.71.66,1.77-.4,1.06-1.06Z"/><circle class="cls-5" cx="288.01" cy="198.56" r="1.7"/><circle class="cls-5" cx="311.47" cy="190.74" r="1.7"/><path class="cls-5" d="M270.34,206.88a2.2,2.2,0,1,1,2.2-2.2A2.2,2.2,0,0,1,270.34,206.88Zm0-3.4a1.2,1.2,0,1,0,1.2,1.2A1.2,1.2,0,0,0,270.34,203.48Z"/><path class="cls-5" d="M267.79,193l3,2.75c.71.65,1.78-.41,1.06-1.06l-3-2.75c-.71-.65-1.78.41-1.06,1.06Z"/><path class="cls-5" d="M270.67,191.77l-2.75,3c-.65.71.41,1.78,1.06,1.06l2.75-3c.65-.71-.41-1.78-1.06-1.06Z"/><path class="cls-5" d="M311.47,197.9l-2.78,3c-.66.71.4,1.77,1.06,1.06l2.78-3c.66-.71-.4-1.77-1.06-1.06Z"/><path class="cls-5" d="M312.64,200.78l-3-2.78c-.71-.66-1.77.4-1.06,1.06l3,2.78c.71.66,1.77-.4,1.06-1.06Z"/><circle class="cls-5" cx="467.51" cy="198.56" r="1.7"/><circle class="cls-5" cx="490.96" cy="190.74" r="1.7"/><path class="cls-5" d="M449.84,206.88a2.2,2.2,0,1,1,2.2-2.2A2.2,2.2,0,0,1,449.84,206.88Zm0-3.4a1.2,1.2,0,1,0,1.2,1.2A1.2,1.2,0,0,0,449.84,203.48Z"/><path class="cls-5" d="M447.29,193l3,2.75c.71.65,1.78-.41,1.06-1.06l-3-2.75c-.71-.65-1.78.41-1.06,1.06Z"/><path class="cls-5" d="M450.17,191.77l-2.75,3c-.65.71.41,1.78,1.06,1.06l2.75-3c.65-.71-.41-1.78-1.06-1.06Z"/><path class="cls-5" d="M491,197.9l-2.78,3c-.66.71.4,1.77,1.06,1.06l2.78-3c.66-.71-.4-1.77-1.06-1.06Z"/><path class="cls-5" d="M492.14,200.78l-3-2.78c-.71-.66-1.77.4-1.06,1.06l3,2.78c.71.66,1.77-.4,1.06-1.06Z"/></g><g class="cls-6"><path class="cls-7" d="M520.66,165.39H478.58v-.82H418.15v.82h-258v-.55h-9.55v.55H108.41v96.07l18.16,43.19c1.71,4.06,1.73,6.16,6.64,6.11l14.65-.13c14-.12,28-.31,41.94-.31H440.34c19.91,0,39.82.27,59.73.27l20.55-48.86v-.17l0-.1Z"/></g><path class="cls-8" d="M313.7,155.35H529v96.07l-21.46,48.86H119.83L98.36,251.42V155.35H313.7Z"/><polygon class="cls-9" points="147.5 300.55 120.06 300.55 98.59 251.69 98.59 155.62 126.04 155.62 126.04 251.69 147.5 300.55"/><polygon class="cls-9" points="480.08 300.55 507.52 300.55 528.99 251.69 528.99 155.62 501.54 155.62 501.54 251.69 480.08 300.55"/><polyline class="cls-8" points="142.42 155.9 142.42 208.33 484.98 208.33 484.98 155.9"/><polygon class="cls-9" points="484.98 154.8 484.98 207.23 142.42 207.23 142.42 154.8 152.39 154.8 152.39 194.05 475.01 194.05 475.01 154.8 484.98 154.8"/><polygon class="cls-7" points="528.99 228.69 528.99 254.87 507.57 303.63 119.94 303.63 98.59 255.04 98.59 228.69 528.99 228.69"/><polygon class="cls-10" points="528.99 225.34 528.99 251.52 507.57 300.28 480.2 300.28 501.54 251.69 501.54 225.34 528.99 225.34"/><polygon class="cls-10" points="147.93 300.28 120.48 300.28 99.14 251.69 99.14 225.34 126.59 225.34 126.59 251.69 147.93 300.28"/><path class="cls-11" d="M509.2,302.78h-391L95.86,251.95v-99.1H531.54v99.1Zm-387.74-5H505.94l20.6-46.88v-93H100.86v93Z"/><rect class="cls-11" x="99.2" y="222.84" width="428.16" height="5"/><path class="cls-11" d="M139.42,156.19v52.43a3,3,0,0,0,3,3H471c4.39,0,9,.4,13.36,0,.2,0,.4,0,.6,0a3,3,0,0,0,3-3V156.19c0-3.86-6-3.87-6,0v52.43l3-3H147.62c-1.32,0-3.33-.39-4.61,0a2.38,2.38,0,0,1-.6,0l3,3V156.19c0-3.86-6-3.87-6,0Z"/><rect class="cls-12" x="164.47" y="167.64" width="93.88" height="10"/><rect class="cls-12" x="164.47" y="182.92" width="123.52" height="7"/><rect class="cls-13" x="142.51" y="252.79" width="26.74" height="13.18"/><rect class="cls-13" x="181.49" y="252.79" width="26.74" height="13.18"/><path class="cls-11" d="M169.25,263H142.51l3,3V252.79l-3,3h26.74l-3-3V266c0,3.86,6,3.87,6,0V252.79a3,3,0,0,0-3-3H142.51a3,3,0,0,0-3,3V266a3,3,0,0,0,3,3h26.74C173.11,269,173.11,263,169.25,263Z"/><path class="cls-11" d="M208.22,263H181.49l3,3V252.79l-3,3h26.74l-3-3V266c0,3.86,6,3.87,6,0V252.79a3,3,0,0,0-3-3H181.49a3,3,0,0,0-3,3V266a3,3,0,0,0,3,3h26.74C212.09,269,212.09,263,208.22,263Z"/><rect class="cls-14" x="421.94" y="155.08" width="63.13" height="144.93"/><polygon class="cls-15" points="485.07 289.57 485.07 300 421.94 300 421.94 289.57 475.74 289.57 475.74 289.57 485.07 289.57"/><polygon class="cls-16" points="485.07 154.53 485.07 164.96 421.94 164.96 421.94 154.53 475.74 154.53 475.74 154.53 485.07 154.53"/><path class="cls-11" d="M485.07,297H421.94l3,3V155.08l-3,3h63.13l-3-3V300c0,3.86,6,3.87,6,0V155.08a3,3,0,0,0-3-3H421.94a3,3,0,0,0-3,3V300a3,3,0,0,0,3,3h63.13C488.93,303,488.94,297,485.07,297Z"/><rect class="cls-15" x="434.48" y="246.29" width="13.18" height="26.74"/><rect class="cls-15" x="459.74" y="246.29" width="13.18" height="26.74"/><path class="cls-11" d="M437.48,273V246.29l-3,3h13.18l-3-3V273l3-3H434.48c-3.86,0-3.87,6,0,6h13.18a3,3,0,0,0,3-3V246.29a3,3,0,0,0-3-3H434.48a3,3,0,0,0-3,3V273C431.48,276.89,437.48,276.89,437.48,273Z"/><path class="cls-11" d="M462.74,273V246.29l-3,3h13.18l-3-3V273l3-3H459.74c-3.86,0-3.87,6,0,6h13.18a3,3,0,0,0,3-3V246.29a3,3,0,0,0-3-3H459.74a3,3,0,0,0-3,3V273C456.74,276.89,462.74,276.89,462.74,273Z"/><circle class="cls-12" cx="128.78" cy="259.38" r="5.49"/><path class="cls-11" d="M131.82,259.93c-.17,3.2-5,3.22-5,0s4.81-3.19,5,0c.21,3.84,6.21,3.86,6,0A8.49,8.49,0,1,0,129,268.4c4.91.2,8.54-3.77,8.79-8.47C138,256.07,132,256.08,131.82,259.93Z"/><path class="cls-11" d="M421.94,210.78h63c3.86,0,3.87-6,0-6h-63c-3.86,0-3.87,6,0,6Z"/><path class="cls-17" d="M421.94,214.07h63c3.86,0,3.87-6,0-6h-63c-3.86,0-3.87,6,0,6Z"/></g></g></svg>